PathFileType	4	(X/Y/Z)	Walk9.trc
DataRate	CameraRate	NumFrames	NumMarkers	Units	OrigDataRate	OrigDataStartFrame	OrigNumFrames
200.000000	200.000000	4	59	mm	200.000000	315	546
Frame#	Times		LBHD		C7		RBack		LPSI		RPSI		RCAR		LElbowM		LTB1		LLFC		T10		LUA1		RElbowM		CLAV		RFA1		LCAR		RUA1		LFA1		RACR1		LACR1		LWRU		RFHD		RTH3		LWRR		RTH2		RTB1		RTB4		RTB3		RToe		RWRU		RMT1		RBHD		LFHD		RTH4		RLFC		RCAL		RWRR		RMT5		RTH1		LTH3		LTH4		RTB2		LTH1		LElbow		RMMAL		LMT1		STRN		RElbow		LTH2		LTB2		RASI		LTB3		RLMAL		LCAL		LToe		LASI		LLMAL		LMT5		LTB4		LMMAL
			X1	Y1	Z1	X2	Y2	Z2	X3	Y3	Z3	X4	Y4	Z4	X5	Y5	Z5	X6	Y6	Z6	X7	Y7	Z7	X8	Y8	Z8	X9	Y9	Z9	X10	Y10	Z10	X11	Y11	Z11	X12	Y12	Z12	X13	Y13	Z13	X14	Y14	Z14	X15	Y15	Z15	X16	Y16	Z16	X17	Y17	Z17	X18	Y18	Z18	X19	Y19	Z19	X20	Y20	Z20	X21	Y21	Z21	X22	Y22	Z22	X23	Y23	Z23	X24	Y24	Z24	X25	Y25	Z25	X26	Y26	Z26	X27	Y27	Z27	X28	Y28	Z28	X29	Y29	Z29	X30	Y30	Z30	X31	Y31	Z31	X32	Y32	Z32	X33	Y33	Z33	X34	Y34	Z34	X35	Y35	Z35	X36	Y36	Z36	X37	Y37	Z37	X38	Y38	Z38	X39	Y39	Z39	X40	Y40	Z40	X41	Y41	Z41	X42	Y42	Z42	X43	Y43	Z43	X44	Y44	Z44	X45	Y45	Z45	X46	Y46	Z46	X47	Y47	Z47	X48	Y48	Z48	X49	Y49	Z49	X50	Y50	Z50	X51	Y51	Z51	X52	Y52	Z52	X53	Y53	Z53	X54	Y54	Z54	X55	Y55	Z55	X56	Y56	Z56	X57	Y57	Z57	X58	Y58	Z58	X59	Y59	Z59

315	1.575	-220.75	1489.1	-99.946	-244.65	1354.6	-32.02	-273.6	1256.6	95.565	-300.19	901.94	-67.923	-304.05	900.8	31.897	-130.98	746.53	297	-205.03	962.62	-236.45	-197.33	334.67	-59.753	-207.44	449	-144.85	-273.02	1087.9	-37.084	-147.18	1119	-279.05	-242.18	961.93	165.78	-118.27	1277.7	-22.908	-204.46	875.48	261.55	-16.069	744.2	-332.46	-178.86	1142	207.27	-128.17	883.69	-324.58	-175.96	1295.7	124.41	-158.04	1291.1	-193.2	-76.096	769.79	-333.15	-45.301	1506.7	2.247	-49.88	568.34	151.57	-23.382	783.85	-283.72	-21.875	690.21	146.68	29.736	353.65	72.379	8.1488	264.69	75.16	0.74344	171.73	74.736	101.28	56.045	107.77	-175.64	767.2	258.21	53.723	74.796	81.481	-225.05	1496	23.174	-49.039	1497.8	-74.087	-86.89	655.05	170.44	0.84066	483.65	144.26	-105.44	68.974	77.537	-103.07	782.42	250.55	23.125	58.295	126.52	-124.63	734.7	191.82	-163.02	554.18	-153.12	-147.65	644.8	-177.78	-26.29	269.96	138.56	-138.32	734.42	-205.97	-175.6	1000.1	-300.18	-32.372	98.536	37.26	-195.92	47.389	-32.508	-55.662	1172.2	-23.976	-208.35	1002	246.54	-91.453	653.15	-132.2	-245.04	247.06	-122.1	-83.484	875.64	125.89	-238.99	157.35	-44.231	-50.855	93.138	115.7	-350.89	36.357	-48.318	-137.97	23.97	-40.699	-104.56	866.53	-194.74	-300.19	66.501	-87.298	-217.7	33.412	-90.073	-226.64	247.4	-53.965	-286.28	70.646	-7.5888
316	1.58	-214.86	1488.3	-99.749	-238.83	1353.8	-31.936	-268.16	1255.8	95.483	-294.96	901.49	-67.288	-298.4	900.05	32.498	-127.16	745.58	297.36	-198.48	961.59	-236.64	-195.26	334.13	-59.65	-204.74	448.6	-144.75	-267.43	1087.2	-36.908	-140.72	1118.1	-278.85	-237.91	961.15	166.08	-112.56	1276.7	-22.695	-200.29	874.67	261.84	-8.2111	744.08	-332.19	-173.94	1141.1	207.46	-120.94	883.04	-324.5	-170.44	1294.6	124.56	-152.08	1290.3	-193.06	-68.347	769.38	-332.94	-39.452	1505.8	2.5527	-44.015	567.31	150.98	-15.768	783.68	-283.47	-15.974	689.18	145.95	38.98	353.8	71.531	20.432	264.17	74.58	16.19	171.01	74.45	120.67	58.287	106.98	-171.69	766.31	258.48	72.38	75.609	81	-219.23	1495.1	23.378	-43.165	1496.9	-73.779	-80.866	654.03	170.14	7.1219	482.86	143.46	-86.48	64.847	78.038	-99.083	781.42	250.96	42.557	58.256	126.18	-118.56	733.72	191.86	-159.68	553.47	-152.97	-143.76	644.04	-177.66	-13.677	268.43	138.23	-133.89	733.61	-205.85	-168.87	999.27	-300.21	-14.69	96.66	37.181	-195.84	47.375	-32.443	-50.023	1171.2	-23.781	-203.83	1001.3	246.81	-87.518	652.06	-132.08	-243.64	246.86	-122	-77.495	874.78	125.9	-238.17	157.11	-44.12	-32.495	90.765	115.81	-350.87	36.688	-48.124	-137.85	23.999	-40.816	-99.807	865.81	-194.26	-300.02	66.675	-87.149	-217.72	33.396	-89.98	-225.3	247.1	-53.785	-286.07	70.766	-7.4061
317	1.585	-208.97	1487.4	-99.54	-233.02	1352.9	-31.841	-262.7	1255	95.416	-289.7	901.03	-66.635	-292.71	899.27	33.112	-123.28	744.63	297.7	-191.93	960.56	-236.81	-193.15	333.59	-59.563	-201.99	448.21	-144.65	-261.82	1086.4	-36.713	-134.23	1117.3	-278.62	-233.62	960.36	166.39	-106.85	1275.7	-22.473	-196.08	873.85	262.13	-0.38137	743.93	-331.91	-169.02	1140.1	207.66	-113.73	882.37	-324.4	-164.91	1293.6	124.71	-146.11	1289.5	-192.9	-60.622	768.95	-332.72	-33.602	1504.9	2.8723	-38.269	566.17	150.46	-8.1796	783.47	-283.19	-10.132	688.04	145.26	48.047	353.95	70.674	32.55	263.74	73.968	31.467	170.49	74.099	139.83	60.837	105.96	-167.69	765.41	258.75	90.819	76.714	80.336	-213.41	1494.2	23.596	-37.289	1496	-73.46	-74.925	652.92	169.88	13.262	481.97	142.73	-67.578	61.041	78.506	-95.052	780.42	251.34	61.842	58.549	125.68	-112.38	732.72	191.9	-156.3	552.77	-152.83	-139.87	643.27	-177.55	-1.1725	267.02	137.88	-129.48	732.81	-205.73	-162.13	998.44	-300.22	2.8188	95.069	37.02	-195.75	47.369	-32.382	-44.366	1170.2	-23.576	-199.28	1000.4	247.08	-83.554	650.98	-131.97	-242.22	246.66	-121.89	-71.48	873.85	125.91	-237.32	156.88	-44.017	-14.214	88.692	115.84	-350.85	37.058	-47.91	-137.74	24.027	-40.936	-95.017	865	-193.75	-299.84	66.873	-86.991	-217.75	33.381	-89.886	-223.89	246.8	-53.618	-285.84	70.912	-7.2194
318	1.59	-203.08	1486.5	-99.319	-227.21	1352.1	-31.734	-257.22	1254.1	95.365	-284.43	900.57	-65.962	-286.98	898.46	33.739	-119.34	743.67	298.05	-185.37	959.54	-236.97	-190.98	333.03	-59.489	-199.2	447.81	-144.55	-256.19	1085.6	-36.503	-127.72	1116.4	-278.36	-229.3	959.56	166.69	-101.12	1274.8	-22.242	-191.82	873.03	262.42	7.4192	743.76	-331.59	-164.08	1139.2	207.87	-106.51	881.7	-324.27	-159.36	1292.6	124.88	-140.13	1288.6	-192.74	-52.922	768.5	-332.48	-27.749	1504	3.2071	-32.636	564.95	150.01	-0.61827	783.23	-282.87	-4.3471	686.78	144.62	56.934	354.1	69.808	44.486	263.43	73.325	46.547	170.17	73.681	158.71	63.682	104.68	-163.66	764.51	259.02	109	78.099	79.473	-207.59	1493.3	23.826	-31.411	1495.1	-73.129	-69.061	651.75	169.65	19.265	480.98	142.07	-48.778	57.564	78.946	-90.979	779.41	251.72	80.947	59.166	125.01	-106.11	731.68	191.92	-152.89	552.07	-152.69	-135.96	642.51	-177.44	11.21	265.73	137.51	-125.08	732.01	-205.62	-155.37	997.6	-300.21	20.115	93.761	36.778	-195.65	47.37	-32.322	-38.693	1169.2	-23.36	-194.7	999.63	247.36	-79.56	649.91	-131.89	-240.78	246.48	-121.79	-65.44	872.85	125.92	-236.44	156.65	-43.918	3.9569	86.925	115.78	-350.81	37.472	-47.672	-137.63	24.053	-41.059	-90.192	864.11	-193.21	-299.66	67.096	-86.821	-217.78	33.368	-89.789	-222.44	246.5	-53.462	-285.58	71.086	-7.027
